<svg xmlns="http://www.w3.org/2000/svg" viewBox="0 0 1000 1001"><defs><style>.cls-1{fill:#ffebc7;}.cls-2{fill:#fef1ad;}.cls-3{fill:#d8d8d8;}.cls-4{fill:#ffa33c;}</style></defs><g id="图层_5" data-name="图层 5"><rect class="cls-1" y="1" width="1000" height="1000"/></g><g id="图层_4" data-name="图层 4"><polygon class="cls-2" points="0 642.33 1000 102.77 1000 1 0 1 0 642.33"/></g><g id="图层_3" data-name="图层 3"><polygon class="cls-3" points="0 540.01 1000 0.45 1000 133 0 676 0 540.01"/><path class="cls-3" d="M855.21,428.67,0,898v102H119L862.7,552a17.15,17.15,0,0,0,8.3-14.69V438A10.66,10.66,0,0,0,855.21,428.67Z" transform="translate(0 1)"/></g><g id="图层_2" data-name="图层 2"><path class="cls-4" d="M495.47,431.86A18.81,18.81,0,0,1,500,402.15c99.16-53.47,500-269.67,500-270.15V-1L285.33,385.38A20.09,20.09,0,0,0,280.47,417L468.61,611a20.16,20.16,0,0,1-4.75,31.7L.11,898,0,1000H119L681,661c12.12-7.33,14.5-24.7,4.59-34.81Z" transform="translate(0 1)"/></g></svg>